HIERARCHY
ROOT root
{
	OFFSET	0.000000	0.000000	0.000000
	CHANNELS 6 Xposition Yposition Zposition Zrotation Yrotation Xrotation
	JOINT lhipjoint
	{
		OFFSET	0.000000	0.000000	0.000000
		CHANNELS 3 Zrotation Yrotation Xrotation
		JOINT lfemur
		{
			OFFSET	1.288582	-1.832915	1.039701
			CHANNELS 3 Zrotation Yrotation Xrotation
			JOINT ltibia
			{
				OFFSET	2.478461	-6.809521	0.000000
				CHANNELS 3 Zrotation Yrotation Xrotation
				JOINT lfoot
				{
					OFFSET	2.752744	-7.563107	0.000000
					CHANNELS 3 Zrotation Yrotation Xrotation
					JOINT ltoes
					{
						OFFSET	0.128484	-0.353008	1.682235
						CHANNELS 3 Zrotation Yrotation Xrotation
						End Site
						{
							OFFSET	0.000000	-0.000000	0.873110
						}
					}
				}
			}
		}
	}
	JOINT rhipjoint
	{
		OFFSET	0.000000	0.000000	0.000000
		CHANNELS 3 Zrotation Yrotation Xrotation
		JOINT rfemur
		{
			OFFSET	-1.311834	-1.832916	1.039700
			CHANNELS 3 Zrotation Yrotation Xrotation
			JOINT rtibia
			{
				OFFSET	-2.447395	-6.724169	0.000000
				CHANNELS 3 Zrotation Yrotation Xrotation
				JOINT rfoot
				{
					OFFSET	-2.673429	-7.345193	0.000000
					CHANNELS 3 Zrotation Yrotation Xrotation
					JOINT rtoes
					{
						OFFSET	-0.169142	-0.464715	1.776261
						CHANNELS 3 Zrotation Yrotation Xrotation
						End Site
						{
							OFFSET	-0.000000	-0.000000	0.927771
						}
					}
				}
			}
		}
	}
	JOINT lowerback
	{
		OFFSET	0.000000	0.000000	0.000000
		CHANNELS 3 Zrotation Yrotation Xrotation
		JOINT upperback
		{
			OFFSET	0.012494	2.142519	0.038421
			CHANNELS 3 Zrotation Yrotation Xrotation
			JOINT thorax
			{
				OFFSET	-0.029567	2.141988	-0.037509
				CHANNELS 3 Zrotation Yrotation Xrotation
				JOINT lowerneck
				{
					OFFSET	-0.033793	2.137338	-0.054507
					CHANNELS 3 Zrotation Yrotation Xrotation
					JOINT upperneck
					{
						OFFSET	-0.016776	1.657091	-0.054760
						CHANNELS 3 Zrotation Yrotation Xrotation
						JOINT head
						{
							OFFSET	0.079125	1.583306	-0.118434
							CHANNELS 3 Zrotation Yrotation Xrotation
							End Site
							{
								OFFSET	0.032982	1.739403	-0.042712
							}
						}
					}
				}
				JOINT lclavicle
				{
					OFFSET	-0.033793	2.137338	-0.054507
					CHANNELS 3 Zrotation Yrotation Xrotation
					JOINT lhumerus
					{
						OFFSET	3.395560	1.164964	0.086733
						CHANNELS 3 Zrotation Yrotation Xrotation
						JOINT lradius
						{
							OFFSET	5.239100	-0.000000	-0.000000
							CHANNELS 3 Zrotation Yrotation Xrotation
							JOINT lwrist
							{
								OFFSET	3.314670	-0.000000	0.000000
								CHANNELS 3 Zrotation Yrotation Xrotation
								JOINT lhand
								{
									OFFSET	1.657340	-0.000000	0.000000
									CHANNELS 3 Zrotation Yrotation Xrotation
									JOINT lfingers
									{
										OFFSET	0.965900	-0.000000	0.000000
										CHANNELS 3 Zrotation Yrotation Xrotation
										End Site
										{
											OFFSET	0.778733	-0.000000	0.000000
										}
									}
								}
								JOINT lthumb
								{
									OFFSET	1.657340	-0.000000	0.000000
									CHANNELS 3 Zrotation Yrotation Xrotation
									End Site
									{
										OFFSET	0.790623	-0.000000	0.790623
									}
								}
							}
						}
					}
				}
				JOINT rclavicle
				{
					OFFSET	-0.033793	2.137338	-0.054507
					CHANNELS 3 Zrotation Yrotation Xrotation
					JOINT rhumerus
					{
						OFFSET	-3.271929	1.313306	0.339403
						CHANNELS 3 Zrotation Yrotation Xrotation
						JOINT rradius
						{
							OFFSET	-5.302520	-0.000000	0.000000
							CHANNELS 3 Zrotation Yrotation Xrotation
							JOINT rwrist
							{
								OFFSET	-3.678750	-0.000000	0.000000
								CHANNELS 3 Zrotation Yrotation Xrotation
								JOINT rhand
								{
									OFFSET	-1.839370	-0.000000	0.000000
									CHANNELS 3 Zrotation Yrotation Xrotation
									JOINT rfingers
									{
										OFFSET	-0.594811	-0.000000	0.000000
										CHANNELS 3 Zrotation Yrotation Xrotation
										End Site
										{
											OFFSET	-0.479552	-0.000000	0.000000
										}
									}
								}
								JOINT rthumb
								{
									OFFSET	-1.839370	-0.000000	0.000000
									CHANNELS 3 Zrotation Yrotation Xrotation
									End Site
									{
										OFFSET	-0.486874	-0.000000	0.486874
									}
								}
							}
						}
					}
				}
			}
		}
	}
}
MOTION
Frames:	11
Frame Time:	0.008333
8.811661 17.843671 -27.816181 12.183707 -85.960082 -8.822115 0.000000 0.000000 0.000000 -6.256798 -1.797216 7.312470 0.000901 -0.194024 -0.533126 1.378102 -0.420346 -22.085113 1.336683 7.320623 20.668787 0.000000 0.000000 0.000000 10.295958 9.210573 13.041021 -0.023005 0.979202 -2.691703 -0.977635 -17.577512 -32.023373 -0.053162 -1.487887 4.092332 -1.398369 0.211678 -8.805289 -0.400204 0.437724 0.250237 0.427264 0.179714 5.196201 -0.666465 6.630827 -1.143184 1.627798 8.834396 0.877127 0.648344 4.423676 0.346864 0.000000 0.000000 0.000000 -60.622005 -2.115446 31.799210 14.430370 -23.346598 -2.996549 -0.000002 -0.000000 -2.275465 -14.760811 -15.676295 4.072655 -7.125020 0.000002 0.000000 -27.455706 14.721307 22.360917 0.000000 0.000000 0.000000 64.395808 -3.115893 15.439500 -13.891762 22.579766 -2.786413 0.000001 -0.000002 13.573955 16.298080 -40.711080 -10.796824 7.125020 -0.000002 0.000000 60.373530 -60.475447 -28.533691
8.821981 17.843864 -27.822266 6.309795 -86.233014 -2.855692 0.000000 0.000000 0.000000 -5.725231 -1.910074 7.287203 0.001007 -0.205366 -0.562567 1.465802 -0.426812 -22.335992 1.432979 7.568848 21.411980 0.000000 0.000000 0.000000 10.830983 9.647453 12.889110 -0.020619 0.924739 -2.554203 -0.859965 -17.796180 -32.109268 -0.040909 -1.305429 3.589604 -0.660900 0.973274 -8.688951 -0.953297 1.395400 -0.001761 -0.448056 0.677556 4.908590 1.000950 5.964415 -0.550813 1.586154 7.922527 0.829321 0.353462 3.967102 0.302663 0.000000 0.000000 0.000000 -57.371646 -3.057321 33.511633 14.297160 -23.157925 -2.943962 -0.000002 0.000001 -2.439857 -14.516214 -15.371597 3.927122 -7.125020 0.000002 0.000000 -27.366858 15.012950 22.068014 0.000000 0.000000 0.000000 63.619081 -3.816177 13.335602 -13.542526 22.076944 -2.653732 0.000001 -0.000002 14.175553 15.288287 -40.824043 -10.132038 7.125020 -0.000002 0.000000 59.683953 -60.800808 -28.514781
8.831290 17.843851 -27.827723 -0.139608 -86.458833 3.696413 0.000000 0.000000 0.000000 -5.212576 -2.027626 7.259067 0.001121 -0.217024 -0.592930 1.547815 -0.432941 -22.604225 1.523722 7.794239 22.090841 0.000000 0.000000 0.000000 11.344019 10.092152 12.739085 -0.018444 0.872513 -2.421066 -0.750103 -18.003243 -32.208427 -0.031066 -1.137760 3.127934 -0.011541 1.587557 -8.596736 -1.369834 2.160874 -0.225671 -1.152415 1.074068 4.662623 2.316235 5.417594 -0.103487 1.567896 7.189604 0.830601 0.125110 3.600627 0.281759 0.000000 0.000000 0.000000 -54.394397 -3.899494 34.760337 14.161054 -22.964480 -2.890648 -0.000002 0.000001 -2.565951 -14.169666 -15.035054 3.747665 -7.125020 0.000002 0.000000 -27.224190 15.337792 21.697137 0.000000 0.000000 0.000000 62.510932 -4.270394 11.645472 -13.170540 21.536581 -2.515546 0.000001 -0.000002 14.688061 14.331867 -40.924449 -9.501595 7.125020 -0.000002 0.000000 59.026317 -61.108610 -28.489774
8.838756 17.843581 -27.832228 -6.649372 -86.629078 10.318313 0.000000 0.000000 0.000000 -4.747047 -2.161876 7.234131 0.001251 -0.229399 -0.625673 1.615775 -0.454773 -22.894239 1.614081 8.011178 22.748037 0.000000 0.000000 0.000000 11.804965 10.528861 12.598195 -0.016601 0.825966 -2.301536 -0.654801 -18.185897 -32.321319 -0.023786 -0.995661 2.736874 0.491436 1.984684 -8.547084 -1.588861 2.645203 -0.395691 -1.602268 1.325100 4.486676 3.126133 5.062764 0.148135 1.583779 6.717972 0.904094 -0.006194 3.365990 0.293696 0.000000 0.000000 0.000000 -51.772484 -4.498945 35.378251 14.022889 -22.767420 -2.836960 -0.000002 0.000001 -2.660709 -13.664975 -14.672632 3.523517 -7.125020 0.000002 0.000000 -26.992238 15.691917 21.218475 0.000000 0.000000 0.000000 60.885510 -4.355452 10.533729 -12.767508 20.945613 -2.369528 0.000001 -0.000002 15.077867 13.463225 -41.012316 -8.928867 7.125020 -0.000002 0.000000 58.425650 -61.388842 -28.462005
8.843824 17.843092 -27.835729 -12.366981 -86.745998 16.145612 0.000000 0.000000 0.000000 -4.366448 -2.332624 7.231145 0.001411 -0.243579 -0.664316 1.658297 -0.516358 -23.207678 1.720305 8.257433 23.498756 0.000000 0.000000 0.000000 12.173472 10.916973 12.478997 -0.015225 0.789565 -2.207758 -0.580851 -18.326582 -32.432978 -0.018968 -0.889193 2.443977 0.825296 2.177366 -8.536432 -1.638233 2.868674 -0.506291 -1.812814 1.441894 4.380916 3.469788 4.888946 0.220438 1.641542 6.483446 1.043648 -0.044217 3.251141 0.335776 0.000000 0.000000 0.000000 -49.434764 -4.827796 35.455073 13.887487 -22.573631 -2.784772 -0.000002 0.000001 -2.774212 -12.999697 -14.305173 3.263174 -7.125020 0.000002 0.000000 -26.663466 16.055284 20.643927 0.000000 0.000000 0.000000 58.787809 -4.110077 9.897779 -12.348719 20.325548 -2.221935 0.000001 -0.000002 15.371414 12.690072 -41.092244 -8.419733 7.125020 -0.000002 0.000000 57.892466 -61.641173 -28.438618
8.846335 17.842434 -27.838309 -16.545771 -86.828182 20.419203 0.000000 0.000000 0.000000 -4.099606 -2.560541 7.270226 0.001624 -0.260991 -0.713354 1.666917 -0.624632 -23.554210 1.852829 8.552554 24.405382 0.000000 0.000000 0.000000 12.420006 11.218828 12.389263 -0.014366 0.765993 -2.147085 -0.534230 -18.409336 -32.527034 -0.016503 -0.829429 2.279598 0.997971 2.222086 -8.549291 -1.586796 2.908040 -0.567052 -1.851197 1.463779 4.328422 3.472773 4.835536 0.158756 1.752846 6.403370 1.225458 -0.007139 3.214399 0.398128 0.000000 0.000000 0.000000 -47.249156 -4.939792 35.195341 13.759515 -22.389869 -2.735837 -0.000002 0.000001 -2.969631 -12.191896 -13.934611 2.976228 -7.125020 0.000002 0.000000 -26.244937 16.424173 19.990476 0.000000 0.000000 0.000000 56.392692 -3.660944 9.500872 -11.944945 19.722018 -2.083676 0.000001 -0.000002 15.627789 12.003968 -41.173895 -7.969789 7.125020 -0.000002 0.000000 57.432855 -61.872879 -28.434121
8.846595 17.841710 -27.840154 -19.068989 -86.895822 23.017826 0.000000 0.000000 0.000000 -3.943291 -2.850000 7.357049 0.001904 -0.281957 -0.774059 1.642336 -0.759243 -23.940636 2.005026 8.876538 25.409878 0.000000 0.000000 0.000000 12.550414 11.424780 12.326523 -0.013947 0.754198 -2.116946 -0.513898 -18.434619 -32.595144 -0.015987 -0.816350 2.243630 1.045453 2.180240 -8.570963 -1.495114 2.843499 -0.592730 -1.790614 1.431739 4.309622 3.260468 4.834364 0.009815 1.923540 6.388937 1.421896 0.084742 3.210905 0.469499 0.000000 0.000000 0.000000 -45.104222 -4.910815 34.779884 13.639992 -22.217708 -2.690476 -0.000002 0.000001 -3.289673 -11.259048 -13.544773 2.668272 -7.125020 0.000002 0.000000 -25.746180 16.811476 19.266978 0.000000 0.000000 0.000000 53.878066 -3.139400 9.120016 -11.585357 19.179899 -1.963931 0.000001 -0.000002 15.902806 11.394855 -41.269106 -7.573614 7.125020 -0.000002 0.000000 57.056135 -62.093355 -28.467805
8.845159 17.841120 -27.841520 -20.396522 -86.956899 24.404160 0.000000 0.000000 0.000000 -3.865654 -3.171053 7.475368 0.002235 -0.304561 -0.840982 1.595530 -0.881463 -24.345792 2.151891 9.175542 26.345996 0.000000 0.000000 0.000000 12.600795 11.544963 12.279340 -0.013816 0.750424 -2.107601 -0.508834 -18.423718 -32.625880 -0.016254 -0.823150 2.262328 1.020212 2.099932 -8.593685 -1.398405 2.735074 -0.596363 -1.689438 1.376732 4.310613 2.932617 4.833059 -0.186753 2.139063 6.373225 1.610875 0.209443 3.206826 0.541117 0.000000 0.000000 0.000000 -42.939778 -4.804624 34.308328 13.526704 -22.054055 -2.647788 -0.000002 0.000001 -3.744533 -10.213170 -13.107585 2.341855 -7.125020 0.000002 0.000000 -25.175498 17.241364 18.473826 0.000000 0.000000 0.000000 51.360293 -2.636711 8.618911 -11.285309 18.724252 -1.866481 0.000001 -0.000002 16.224585 10.851135 -41.390514 -7.224569 7.125020 -0.000002 0.000000 56.772081 -62.313148 -28.560303
8.842541 17.840896 -27.842622 -21.126943 -87.010907 25.182317 0.000000 0.000000 0.000000 -3.830322 -3.465036 7.594037 0.002563 -0.325161 -0.903117 1.542778 -0.951855 -24.718247 2.258705 9.385347 27.008329 0.000000 0.000000 0.000000 12.611056 11.593520 12.234152 -0.013831 0.750767 -2.108885 -0.504778 -18.404591 -32.603718 -0.015684 -0.808585 2.222274 0.974092 2.017744 -8.615073 -1.317810 2.627024 -0.589157 -1.593079 1.321751 4.322103 2.578185 4.796857 -0.395431 2.363554 6.312222 1.779554 0.340719 3.179898 0.607845 0.000000 0.000000 0.000000 -40.731403 -4.670150 33.822485 13.417696 -21.896154 -2.606997 -0.000002 0.000001 -4.320213 -9.061639 -12.592135 1.998813 -7.125020 0.000002 0.000000 -24.539482 17.741096 17.607036 0.000000 0.000000 0.000000 48.902019 -2.214365 7.942610 -11.047294 18.360706 -1.790790 0.000001 -0.000002 16.589414 10.347772 -41.551396 -6.906719 7.125020 -0.000002 0.000000 56.580215 -62.546977 -28.730133
8.839094 17.841156 -27.843499 -21.686897 -87.057680 25.784159 0.000000 0.000000 0.000000 -3.812745 -3.679345 7.685589 0.002830 -0.340838 -0.951073 1.497764 -0.949947 -25.008952 2.300840 9.466445 27.265607 0.000000 0.000000 0.000000 12.607784 11.590261 12.184513 -0.013915 0.753066 -2.115240 -0.494661 -18.392083 -32.530421 -0.013664 -0.754749 2.074229 0.944891 1.959623 -8.632776 -1.268568 2.550612 -0.582295 -1.534800 1.282998 4.334117 2.273061 4.707240 -0.587460 2.559130 6.182149 1.926431 0.454280 3.118127 0.668539 0.000000 0.000000 0.000000 -38.472444 -4.538223 33.337349 13.312813 -21.743831 -2.568013 -0.000002 0.000001 -4.985009 -7.813684 -11.990379 1.645438 -7.125020 0.000002 0.000000 -23.843556 18.317397 16.672234 0.000000 0.000000 0.000000 46.531004 -1.917944 7.104657 -10.867622 18.085057 -1.734604 0.000001 -0.000002 16.963109 9.840315 -41.764055 -6.590528 7.125020 -0.000002 0.000000 56.462615 -62.814389 -28.989597
8.835044 17.841844 -27.843990 -22.279982 -87.099831 26.417127 0.000000 0.000000 0.000000 -3.800567 -3.802160 7.742236 0.003023 -0.351675 -0.984337 1.466091 -0.887880 -25.206943 2.283574 9.433323 27.160444 0.000000 0.000000 0.000000 12.603477 11.564098 12.134375 -0.014065 0.757184 -2.126470 -0.482537 -18.380489 -32.435785 -0.011353 -0.688000 1.890698 0.950346 1.934997 -8.641982 -1.255705 2.516705 -0.585478 -1.528742 1.266107 4.335137 2.053843 4.563365 -0.748946 2.709117 5.981395 2.059234 0.539079 3.020768 0.725156 0.000000 0.000000 0.000000 -36.170881 -4.411648 32.847257 13.211593 -21.596457 -2.530637 -0.000002 0.000001 -5.692720 -6.491826 -11.340369 1.296042 -7.125020 0.000002 0.000000 -23.095640 18.934875 15.699984 0.000000 0.000000 0.000000 44.242925 -1.765379 6.180398 -10.740335 17.889147 -1.695297 0.000001 -0.000002 17.287714 9.270845 -42.036772 -6.236413 7.125020 -0.000002 0.000000 56.385306 -63.136379 -29.341357
